<?xml version="1.0" encoding="UTF-8" standalone="no"?><svg xmlns="http://www.w3.org/2000/svg" xmlns:xlink="http://www.w3.org/1999/xlink" contentScriptType="application/ecmascript" contentStyleType="text/css" height="394px" preserveAspectRatio="none" style="width:486px;height:394px;" version="1.1" viewBox="0 0 486 394" width="486px" zoomAndPan="magnify"><defs><filter height="300%" id="f1gnq266ssch98" width="300%" x="-1" y="-1"><feGaussianBlur result="blurOut" stdDeviation="2.0"/><feColorMatrix in="blurOut" result="blurOut2" type="matrix" values="0 0 0 0 0 0 0 0 0 0 0 0 0 0 0 0 0 0 .4 0"/><feOffset dx="4.0" dy="4.0" in="blurOut2" result="blurOut3"/><feBlend in="SourceGraphic" in2="blurOut3" mode="normal"/></filter></defs><g><line style="stroke: #383838; stroke-width: 1.0; stroke-dasharray: 5.0,5.0;" x1="27" x2="27" y1="86.2969" y2="307.0938"/><line style="stroke: #383838; stroke-width: 1.0; stroke-dasharray: 5.0,5.0;" x1="227.5" x2="227.5" y1="86.2969" y2="307.0938"/><line style="stroke: #383838; stroke-width: 1.0; stroke-dasharray: 5.0,5.0;" x1="410.5" x2="410.5" y1="86.2969" y2="307.0938"/><text fill="#000000" font-family="sans-serif" font-size="14" lengthAdjust="spacingAndGlyphs" textLength="32" x="8" y="82.9951">User</text><ellipse cx="27" cy="13" fill="#F8F8F8" filter="url(#f1gnq266ssch98)" rx="8" ry="8" style="stroke: #383838; stroke-width: 2.0;"/><path d="M27,21 L27,48 M14,29 L40,29 M27,48 L14,63 M27,48 L40,63 " fill="none" filter="url(#f1gnq266ssch98)" style="stroke: #383838; stroke-width: 2.0;"/><text fill="#000000" font-family="sans-serif" font-size="14" lengthAdjust="spacingAndGlyphs" textLength="32" x="8" y="319.0889">User</text><ellipse cx="27" cy="332.3906" fill="#F8F8F8" filter="url(#f1gnq266ssch98)" rx="8" ry="8" style="stroke: #383838; stroke-width: 2.0;"/><path d="M27,340.3906 L27,367.3906 M14,348.3906 L40,348.3906 M27,367.3906 L14,382.3906 M27,367.3906 L40,382.3906 " fill="none" filter="url(#f1gnq266ssch98)" style="stroke: #383838; stroke-width: 2.0;"/><rect fill="#F8F8F8" filter="url(#f1gnq266ssch98)" height="30.2969" style="stroke: #383838; stroke-width: 1.5;" width="55" x="198.5" y="51"/><text fill="#000000" font-family="sans-serif" font-size="14" lengthAdjust="spacingAndGlyphs" textLength="41" x="205.5" y="70.9951">Grasp</text><rect fill="#F8F8F8" filter="url(#f1gnq266ssch98)" height="30.2969" style="stroke: #383838; stroke-width: 1.5;" width="55" x="198.5" y="306.0938"/><text fill="#000000" font-family="sans-serif" font-size="14" lengthAdjust="spacingAndGlyphs" textLength="41" x="205.5" y="326.0889">Grasp</text><rect fill="#F8F8F8" filter="url(#f1gnq266ssch98)" height="30.2969" style="stroke: #383838; stroke-width: 1.5;" width="133" x="342.5" y="51"/><text fill="#000000" font-family="sans-serif" font-size="14" lengthAdjust="spacingAndGlyphs" textLength="119" x="349.5" y="70.9951">SPARQL Endpoint</text><rect fill="#F8F8F8" filter="url(#f1gnq266ssch98)" height="30.2969" style="stroke: #383838; stroke-width: 1.5;" width="133" x="342.5" y="306.0938"/><text fill="#000000" font-family="sans-serif" font-size="14" lengthAdjust="spacingAndGlyphs" textLength="119" x="349.5" y="326.0889">SPARQL Endpoint</text><polygon fill="#383838" points="216,113.4297,226,117.4297,216,121.4297,220,117.4297" style="stroke: #383838; stroke-width: 1.0;"/><line style="stroke: #383838; stroke-width: 1.0;" x1="27" x2="222" y1="117.4297" y2="117.4297"/><text fill="#000000" font-family="sans-serif" font-size="13" font-weight="bold" lengthAdjust="spacingAndGlyphs" textLength="9" x="34" y="112.3638">1</text><text fill="#000000" font-family="sans-serif" font-size="13" lengthAdjust="spacingAndGlyphs" textLength="164" x="47" y="112.3638">Submit a GraphQL Query</text><line style="stroke: #383838; stroke-width: 1.0;" x1="228" x2="270" y1="146.5625" y2="146.5625"/><line style="stroke: #383838; stroke-width: 1.0;" x1="270" x2="270" y1="146.5625" y2="159.5625"/><line style="stroke: #383838; stroke-width: 1.0;" x1="229" x2="270" y1="159.5625" y2="159.5625"/><polygon fill="#383838" points="239,155.5625,229,159.5625,239,163.5625,235,159.5625" style="stroke: #383838; stroke-width: 1.0;"/><text fill="#000000" font-family="sans-serif" font-size="13" font-weight="bold" lengthAdjust="spacingAndGlyphs" textLength="9" x="235" y="141.4966">2</text><text fill="#000000" font-family="sans-serif" font-size="13" lengthAdjust="spacingAndGlyphs" textLength="132" x="248" y="141.4966">Translate the Query</text><polygon fill="#383838" points="399,184.6953,409,188.6953,399,192.6953,403,188.6953" style="stroke: #383838; stroke-width: 1.0;"/><line style="stroke: #383838; stroke-width: 1.0;" x1="228" x2="405" y1="188.6953" y2="188.6953"/><text fill="#000000" font-family="sans-serif" font-size="13" font-weight="bold" lengthAdjust="spacingAndGlyphs" textLength="8" x="235" y="183.6294">3</text><text fill="#000000" font-family="sans-serif" font-size="13" lengthAdjust="spacingAndGlyphs" textLength="147" x="247" y="183.6294">Issue SPARQL Queries</text><polygon fill="#383838" points="239,213.8281,229,217.8281,239,221.8281,235,217.8281" style="stroke: #383838; stroke-width: 1.0;"/><line style="stroke: #383838; stroke-width: 1.0; stroke-dasharray: 2.0,2.0;" x1="233" x2="410" y1="217.8281" y2="217.8281"/><text fill="#000000" font-family="sans-serif" font-size="13" font-weight="bold" lengthAdjust="spacingAndGlyphs" textLength="9" x="245" y="212.7622">4</text><text fill="#000000" font-family="sans-serif" font-size="13" lengthAdjust="spacingAndGlyphs" textLength="105" x="258" y="212.7622">SPARQL Results</text><line style="stroke: #383838; stroke-width: 1.0;" x1="228" x2="270" y1="246.9609" y2="246.9609"/><line style="stroke: #383838; stroke-width: 1.0;" x1="270" x2="270" y1="246.9609" y2="259.9609"/><line style="stroke: #383838; stroke-width: 1.0;" x1="229" x2="270" y1="259.9609" y2="259.9609"/><polygon fill="#383838" points="239,255.9609,229,259.9609,239,263.9609,235,259.9609" style="stroke: #383838; stroke-width: 1.0;"/><text fill="#000000" font-family="sans-serif" font-size="13" font-weight="bold" lengthAdjust="spacingAndGlyphs" textLength="9" x="235" y="241.895">5</text><text fill="#000000" font-family="sans-serif" font-size="13" lengthAdjust="spacingAndGlyphs" textLength="113" x="248" y="241.895">Translate Results</text><polygon fill="#383838" points="38,285.0938,28,289.0938,38,293.0938,34,289.0938" style="stroke: #383838; stroke-width: 1.0;"/><line style="stroke: #383838; stroke-width: 1.0; stroke-dasharray: 2.0,2.0;" x1="32" x2="227" y1="289.0938" y2="289.0938"/><text fill="#000000" font-family="sans-serif" font-size="13" font-weight="bold" lengthAdjust="spacingAndGlyphs" textLength="9" x="44" y="284.0278">6</text><text fill="#000000" font-family="sans-serif" font-size="13" lengthAdjust="spacingAndGlyphs" textLength="102" x="57" y="284.0278">GraphQL Result</text></g></svg>