<?xml version="1.0" encoding="UTF-8" standalone="no"?><svg xmlns="http://www.w3.org/2000/svg" xmlns:xlink="http://www.w3.org/1999/xlink" contentScriptType="application/ecmascript" contentStyleType="text/css" height="394px" preserveAspectRatio="none" style="width:490px;height:394px;" version="1.1" viewBox="0 0 490 394" width="490px" zoomAndPan="magnify"><defs><filter height="300%" id="f13vi9ojmt0m2p" width="300%" x="-1" y="-1"><feGaussianBlur result="blurOut" stdDeviation="2.0"/><feColorMatrix in="blurOut" result="blurOut2" type="matrix" values="0 0 0 0 0 0 0 0 0 0 0 0 0 0 0 0 0 0 .4 0"/><feOffset dx="4.0" dy="4.0" in="blurOut2" result="blurOut3"/><feBlend in="SourceGraphic" in2="blurOut3" mode="normal"/></filter></defs><g><line style="stroke: #383838; stroke-width: 1.0; stroke-dasharray: 5.0,5.0;" x1="31" x2="31" y1="86.2969" y2="307.0938"/><line style="stroke: #383838; stroke-width: 1.0; stroke-dasharray: 5.0,5.0;" x1="231.5" x2="231.5" y1="86.2969" y2="307.0938"/><line style="stroke: #383838; stroke-width: 1.0; stroke-dasharray: 5.0,5.0;" x1="414.5" x2="414.5" y1="86.2969" y2="307.0938"/><text fill="#000000" font-family="sans-serif" font-size="14" lengthAdjust="spacingAndGlyphs" textLength="40" x="8" y="82.9951">Client</text><ellipse cx="31" cy="13" fill="#F8F8F8" filter="url(#f13vi9ojmt0m2p)" rx="8" ry="8" style="stroke: #383838; stroke-width: 2.0;"/><path d="M31,21 L31,48 M18,29 L44,29 M31,48 L18,63 M31,48 L44,63 " fill="none" filter="url(#f13vi9ojmt0m2p)" style="stroke: #383838; stroke-width: 2.0;"/><text fill="#000000" font-family="sans-serif" font-size="14" lengthAdjust="spacingAndGlyphs" textLength="40" x="8" y="319.0889">Client</text><ellipse cx="31" cy="332.3906" fill="#F8F8F8" filter="url(#f13vi9ojmt0m2p)" rx="8" ry="8" style="stroke: #383838; stroke-width: 2.0;"/><path d="M31,340.3906 L31,367.3906 M18,348.3906 L44,348.3906 M31,367.3906 L18,382.3906 M31,367.3906 L44,382.3906 " fill="none" filter="url(#f13vi9ojmt0m2p)" style="stroke: #383838; stroke-width: 2.0;"/><rect fill="#F8F8F8" filter="url(#f13vi9ojmt0m2p)" height="30.2969" style="stroke: #383838; stroke-width: 1.5;" width="55" x="202.5" y="51"/><text fill="#000000" font-family="sans-serif" font-size="14" lengthAdjust="spacingAndGlyphs" textLength="41" x="209.5" y="70.9951">Grasp</text><rect fill="#F8F8F8" filter="url(#f13vi9ojmt0m2p)" height="30.2969" style="stroke: #383838; stroke-width: 1.5;" width="55" x="202.5" y="306.0938"/><text fill="#000000" font-family="sans-serif" font-size="14" lengthAdjust="spacingAndGlyphs" textLength="41" x="209.5" y="326.0889">Grasp</text><rect fill="#F8F8F8" filter="url(#f13vi9ojmt0m2p)" height="30.2969" style="stroke: #383838; stroke-width: 1.5;" width="133" x="346.5" y="51"/><text fill="#000000" font-family="sans-serif" font-size="14" lengthAdjust="spacingAndGlyphs" textLength="119" x="353.5" y="70.9951">SPARQL Endpoint</text><rect fill="#F8F8F8" filter="url(#f13vi9ojmt0m2p)" height="30.2969" style="stroke: #383838; stroke-width: 1.5;" width="133" x="346.5" y="306.0938"/><text fill="#000000" font-family="sans-serif" font-size="14" lengthAdjust="spacingAndGlyphs" textLength="119" x="353.5" y="326.0889">SPARQL Endpoint</text><polygon fill="#383838" points="220,113.4297,230,117.4297,220,121.4297,224,117.4297" style="stroke: #383838; stroke-width: 1.0;"/><line style="stroke: #383838; stroke-width: 1.0;" x1="31" x2="226" y1="117.4297" y2="117.4297"/><text fill="#000000" font-family="sans-serif" font-size="13" font-weight="bold" lengthAdjust="spacingAndGlyphs" textLength="9" x="38" y="112.3638">1</text><text fill="#000000" font-family="sans-serif" font-size="13" lengthAdjust="spacingAndGlyphs" textLength="164" x="51" y="112.3638">Submit a GraphQL Query</text><line style="stroke: #383838; stroke-width: 1.0;" x1="232" x2="274" y1="146.5625" y2="146.5625"/><line style="stroke: #383838; stroke-width: 1.0;" x1="274" x2="274" y1="146.5625" y2="159.5625"/><line style="stroke: #383838; stroke-width: 1.0;" x1="233" x2="274" y1="159.5625" y2="159.5625"/><polygon fill="#383838" points="243,155.5625,233,159.5625,243,163.5625,239,159.5625" style="stroke: #383838; stroke-width: 1.0;"/><text fill="#000000" font-family="sans-serif" font-size="13" font-weight="bold" lengthAdjust="spacingAndGlyphs" textLength="9" x="239" y="141.4966">2</text><text fill="#000000" font-family="sans-serif" font-size="13" lengthAdjust="spacingAndGlyphs" textLength="132" x="252" y="141.4966">Translate the Query</text><polygon fill="#383838" points="403,184.6953,413,188.6953,403,192.6953,407,188.6953" style="stroke: #383838; stroke-width: 1.0;"/><line style="stroke: #383838; stroke-width: 1.0;" x1="232" x2="409" y1="188.6953" y2="188.6953"/><text fill="#000000" font-family="sans-serif" font-size="13" font-weight="bold" lengthAdjust="spacingAndGlyphs" textLength="8" x="239" y="183.6294">3</text><text fill="#000000" font-family="sans-serif" font-size="13" lengthAdjust="spacingAndGlyphs" textLength="147" x="251" y="183.6294">Send SPARQL Queries</text><polygon fill="#383838" points="243,213.8281,233,217.8281,243,221.8281,239,217.8281" style="stroke: #383838; stroke-width: 1.0;"/><line style="stroke: #383838; stroke-width: 1.0;" x1="237" x2="414" y1="217.8281" y2="217.8281"/><text fill="#000000" font-family="sans-serif" font-size="13" font-weight="bold" lengthAdjust="spacingAndGlyphs" textLength="9" x="249" y="212.7622">4</text><text fill="#000000" font-family="sans-serif" font-size="13" lengthAdjust="spacingAndGlyphs" textLength="105" x="262" y="212.7622">SPARQL Results</text><line style="stroke: #383838; stroke-width: 1.0;" x1="232" x2="274" y1="246.9609" y2="246.9609"/><line style="stroke: #383838; stroke-width: 1.0;" x1="274" x2="274" y1="246.9609" y2="259.9609"/><line style="stroke: #383838; stroke-width: 1.0;" x1="233" x2="274" y1="259.9609" y2="259.9609"/><polygon fill="#383838" points="243,255.9609,233,259.9609,243,263.9609,239,259.9609" style="stroke: #383838; stroke-width: 1.0;"/><text fill="#000000" font-family="sans-serif" font-size="13" font-weight="bold" lengthAdjust="spacingAndGlyphs" textLength="9" x="239" y="241.895">5</text><text fill="#000000" font-family="sans-serif" font-size="13" lengthAdjust="spacingAndGlyphs" textLength="113" x="252" y="241.895">Translate Results</text><polygon fill="#383838" points="42,285.0938,32,289.0938,42,293.0938,38,289.0938" style="stroke: #383838; stroke-width: 1.0;"/><line style="stroke: #383838; stroke-width: 1.0;" x1="36" x2="231" y1="289.0938" y2="289.0938"/><text fill="#000000" font-family="sans-serif" font-size="13" font-weight="bold" lengthAdjust="spacingAndGlyphs" textLength="9" x="48" y="284.0278">6</text><text fill="#000000" font-family="sans-serif" font-size="13" lengthAdjust="spacingAndGlyphs" textLength="102" x="61" y="284.0278">GraphQL Result</text></g></svg>